HIERARCHY
ROOT root
{
	OFFSET	0	13.1	24.9
	CHANNELS 6  Xposition Yposition Zposition Xrotation Yrotation Zrotation
	JOINT spine_1
	{
		OFFSET	0	9.99999	0
		CHANNELS 3  Xrotation Yrotation Zrotation
		JOINT spine_2
		{
			OFFSET	0	112	-10
			CHANNELS 3  Xrotation Yrotation Zrotation
			JOINT spine_3
			{
				OFFSET	0	206.5	19.3
				CHANNELS 3  Xrotation Yrotation Zrotation
				JOINT spine_4
				{
					OFFSET	0	110.4	14.6
					CHANNELS 3  Xrotation Yrotation Zrotation
					JOINT neck_1
					{
						OFFSET	0	71.8	-50.3
						CHANNELS 3  Xrotation Yrotation Zrotation
						JOINT neck_2
						{
							OFFSET	0	86.2	-25.8
							CHANNELS 3  Xrotation Yrotation Zrotation
							JOINT head_ee
							{
								OFFSET	0	179.8	-8.7
								CHANNELS 3  Xrotation Yrotation Zrotation
								End Site
								{
									OFFSET	1	0	0
								}
							}
						}
					}
					JOINT left_clavicle
					{
						OFFSET	-43.2	22.4	-70.8
						CHANNELS 3  Xrotation Yrotation Zrotation
						JOINT left_shoulder
						{
							OFFSET	-93.9	-5.79999	48.7
							CHANNELS 3  Xrotation Yrotation Zrotation
							JOINT left_elbow
							{
								OFFSET	-291.4	-30.8	15.2
								CHANNELS 3  Xrotation Yrotation Zrotation
								JOINT left_lowarm_twist
								{
									OFFSET	-110.7	-3.89999	13.6
									CHANNELS 3  Xrotation Yrotation Zrotation
									JOINT left_hand
									{
										OFFSET	-110.7	-3.89999	13.6
										CHANNELS 3  Xrotation Yrotation Zrotation
										JOINT left_ee
										{
											OFFSET	-80.8	-5.10001	12.1
											CHANNELS 3  Xrotation Yrotation Zrotation
											End Site
											{
												OFFSET	1	0	0
											}
										}
									}
								}
							}
						}
					}
					JOINT right_clavicle
					{
						OFFSET	43.2	22.4	-70.8
						CHANNELS 3  Xrotation Yrotation Zrotation
						JOINT right_shoulder
						{
							OFFSET	93.9	-5.79999	48.7
							CHANNELS 3  Xrotation Yrotation Zrotation
							JOINT right_elbow
							{
								OFFSET	291.4	-30.8	15.2
								CHANNELS 3  Xrotation Yrotation Zrotation
								JOINT right_lowarm_twist
								{
									OFFSET	110.7	-3.89999	13.6
									CHANNELS 3  Xrotation Yrotation Zrotation
									JOINT right_hand
									{
										OFFSET	110.7	-3.89999	13.6
										CHANNELS 3  Xrotation Yrotation Zrotation
										JOINT right_ee
										{
											OFFSET	80.8	-5.10001	12.1
											CHANNELS 3  Xrotation Yrotation Zrotation
											End Site
											{
												OFFSET	1	0	0
											}
										}
									}
								}
							}
						}
					}
				}
			}
		}
	}
	JOINT left_hip
	{
		OFFSET	-82.8	-127.5	0.300001
		CHANNELS 3  Xrotation Yrotation Zrotation
		JOINT left_knee
		{
			OFFSET	-28.2	-396.7	2.2
			CHANNELS 3  Xrotation Yrotation Zrotation
			JOINT left_ankle
			{
				OFFSET	-11.7	-411.3	35.4
				CHANNELS 3  Xrotation Yrotation Zrotation
				JOINT left_toes
				{
					OFFSET	0	-60	-88.6
					CHANNELS 3  Xrotation Yrotation Zrotation
					JOINT left_foot_ee
					{
						OFFSET	-22.5	-16.5	-42.2
						CHANNELS 3  Xrotation Yrotation Zrotation
						End Site
						{
							OFFSET	1	0	0
						}
					}
				}
			}
		}
	}
	JOINT right_hip
	{
		OFFSET	82.8	-127.5	0.300001
		CHANNELS 3  Xrotation Yrotation Zrotation
		JOINT right_knee
		{
			OFFSET	28.2	-396.7	2.2
			CHANNELS 3  Xrotation Yrotation Zrotation
			JOINT right_ankle
			{
				OFFSET	11.7	-411.3	35.4
				CHANNELS 3  Xrotation Yrotation Zrotation
				JOINT right_toes
				{
					OFFSET	0	-60	-88.6
					CHANNELS 3  Xrotation Yrotation Zrotation
					JOINT right_foot_ee
					{
						OFFSET	22.5	-16.5	-42.2
						CHANNELS 3  Xrotation Yrotation Zrotation
						End Site
						{
							OFFSET	1	0	0
						}
					}
				}
			}
		}
	}
}
MOTION
Frames: 5
Frame Time: 0.02
3796.59 719.78 -387.514 -166.228 -46.8255 -166.781 4.5322 -0.243203 -0.831189 4.53256 -0.189821 -0.844979 4.5351 -0.0764492 -0.862656 4.53412 -0.211725 -0.839758 -9.54254 7.36771 5.17094 -9.5012 10.3162 6.82912 -0.0 0.0 -0.0 4.96409 0.704091 9.61351 -60.2851 -71.3447 10.7367 0.534622 -14.8336 0.0695953 28.0063 0.12366 -3.54003 -2.59243 -28.1283 -29.4301 -0.0 0.0 -0.0 7.49062 11.3497 -14.3751 -40.9857 47.795 -63.5225 0.346915 9.7513 -0.0295927 -10.9434 0.511509 -1.30017 3.8143 27.7615 -12.7155 0.0 0.0 0.0 24.2234 7.43254 2.79663 -9.39881 0.271401 1.41528 32.1941 26.7974 -4.40611 16.5109 -0.0 -0.0 -0.0 0.0 -0.0 47.5626 16.5824 -13.1704 -70.7049 3.45977 -9.59137 31.8054 -9.89992 4.08768 -40.2166 0.0 0.0 0.0 0.0 0.0 
3800.19 719.258 -391.918 -165.326 -47.308 -165.743 4.54918 -0.279844 -0.832539 4.54954 -0.226302 -0.848658 4.55263 -0.112394 -0.87109 4.55165 -0.248551 -0.84241 -8.89542 7.17081 4.93337 -8.85324 10.0215 6.50235 -0.0 0.0 -0.0 5.34274 0.746222 10.3493 -60.1352 -71.6894 10.3936 0.451121 -12.5972 0.0497935 27.8273 0.12838 -3.51766 -2.65394 -28.0829 -29.8569 -0.0 0.0 -0.0 7.30878 10.846 -14.0081 -41.3105 47.3512 -61.1641 0.396412 11.1101 -0.0385546 -10.6356 0.493763 -1.26503 3.87608 28.1601 -12.8907 0.0 0.0 0.0 23.835 7.61765 2.43388 -9.46931 0.272554 1.42603 33.2512 26.8282 -4.52554 17.7297 -0.0 -0.0 -0.0 0.0 -0.0 48.3271 16.6445 -12.8788 -69.2171 3.27302 -9.45747 31.5708 -9.75734 4.06249 -39.9717 0.0 0.0 0.0 0.0 0.0 
3801.72 716.99 -389.686 -164.568 -47.3966 -164.858 4.5785 -0.209323 -0.854405 4.5789 -0.154533 -0.865992 4.58094 -0.039392 -0.878789 4.57991 -0.177681 -0.861541 -9.25199 6.78594 4.30923 -9.22717 9.77569 5.82807 -0.0 0.0 -0.0 5.55321 1.25933 10.7689 -60.6623 -71.6665 10.3943 0.392292 -10.9974 0.0377647 28.0228 0.123221 -3.54209 -2.80102 -27.7609 -30.815 -0.0 0.0 -0.0 7.48317 10.4144 -14.3966 -39.7581 47.3148 -60.4452 0.397386 11.1367 -0.0387425 -10.418 0.481324 -1.24011 3.86227 27.8818 -12.9589 0.0 0.0 0.0 24.3935 7.7181 2.28021 -8.14252 0.248629 1.22385 33.5488 26.9064 -4.56092 19.0703 -0.0 -0.0 -0.0 0.0 -0.0 47.4648 16.8842 -12.6877 -66.1548 2.89994 -9.16695 31.3854 -9.70401 4.04281 -39.8374 0.0 0.0 0.0 0.0 0.0 
3808.95 722.915 -385.901 -163.846 -46.8426 -164.243 4.66904 -0.052424 -0.883918 4.66947 0.00392596 -0.885462 4.66908 0.118921 -0.87745 4.668 -0.0211431 -0.885218 -9.40679 6.66841 3.79899 -9.39518 9.92334 5.31371 -0.0 0.0 -0.0 5.70532 1.58722 11.069 -60.7925 -71.787 10.7546 0.374156 -10.5006 0.0343823 28.3592 0.114145 -3.58412 -2.88854 -27.6012 -31.4013 -0.0 0.0 -0.0 7.59491 9.88638 -14.6535 -38.679 47.312 -60.3315 0.398594 11.1697 -0.0389761 -10.4677 0.484158 -1.24581 3.86458 27.8131 -13.0129 0.0 0.0 0.0 22.546 7.87102 1.9601 -6.54639 0.213651 0.981416 33.4488 27.2928 -4.56176 20.9761 -0.0 -0.0 -0.0 0.0 -0.0 47.5968 15.4691 -13.0417 -55.2771 1.71215 -7.98494 26.8381 -10.1138 3.54793 -40.3163 0.0 0.0 0.0 0.0 0.0 
3814.83 729.657 -391.633 -163.864 -46.525 -164.834 4.7243 0.064636 -0.630864 4.72452 0.104648 -0.625473 4.72321 0.184443 -0.606753 4.72271 0.0863054 -0.628266 -9.4977 6.48228 2.94882 -9.5035 10.1649 4.44686 -0.0 0.0 -0.0 5.93401 2.20143 11.5181 -60.7906 -72.3255 11.0715 0.370139 -10.3903 0.0336539 28.5855 0.107901 -3.61235 -2.863 -27.5087 -31.1842 -0.0 0.0 -0.0 6.12881 9.74482 -11.5631 -37.8741 47.6826 -62.453 0.456178 12.7339 -0.0509023 -10.6487 0.494512 -1.26652 3.86599 27.8496 -13.0013 0.0 0.0 0.0 21.4213 8.05344 2.16148 -5.04903 0.174707 0.754931 31.6663 27.5364 -4.36781 22.4993 -0.0 -0.0 -0.0 0.0 -0.0 46.1015 11.1199 -12.6246 -44.7369 0.795295 -6.6483 23.2291 -9.96537 3.12752 -40.1705 0.0 0.0 0.0 0.0 0.0 
